<svg width="27" height="29" viewBox="0 0 27 29" fill="none" xmlns="http://www.w3.org/2000/svg">
<path fill-rule="evenodd" clip-rule="evenodd" d="M25.5554 12.2057H1.79004C1.23804 12.2057 0.790039 11.7577 0.790039 11.2057C0.790039 10.6537 1.23804 10.2057 1.79004 10.2057H25.5554C26.1074 10.2057 26.5554 10.6537 26.5554 11.2057C26.5554 11.7577 26.1074 12.2057 25.5554 12.2057" fill="white" fill-opacity="0.88"/>
<path fill-rule="evenodd" clip-rule="evenodd" d="M19.6018 17.4128C19.0498 17.4128 18.5964 16.9648 18.5964 16.4128C18.5964 15.8608 19.0378 15.4128 19.5898 15.4128H19.6018C20.1538 15.4128 20.6018 15.8608 20.6018 16.4128C20.6018 16.9648 20.1538 17.4128 19.6018 17.4128" fill="white" fill-opacity="0.88"/>
<path fill-rule="evenodd" clip-rule="evenodd" d="M13.685 17.4128C13.133 17.4128 12.6797 16.9648 12.6797 16.4128C12.6797 15.8608 13.121 15.4128 13.673 15.4128H13.685C14.237 15.4128 14.685 15.8608 14.685 16.4128C14.685 16.9648 14.237 17.4128 13.685 17.4128" fill="white" fill-opacity="0.88"/>
<path fill-rule="evenodd" clip-rule="evenodd" d="M7.75593 17.4128C7.20393 17.4128 6.74927 16.9648 6.74927 16.4128C6.74927 15.8608 7.19193 15.4128 7.74393 15.4128H7.75593C8.30793 15.4128 8.75593 15.8608 8.75593 16.4128C8.75593 16.9648 8.30793 17.4128 7.75593 17.4128" fill="white" fill-opacity="0.88"/>
<path fill-rule="evenodd" clip-rule="evenodd" d="M19.6018 22.5951C19.0498 22.5951 18.5964 22.1471 18.5964 21.5951C18.5964 21.0431 19.0378 20.5951 19.5898 20.5951H19.6018C20.1538 20.5951 20.6018 21.0431 20.6018 21.5951C20.6018 22.1471 20.1538 22.5951 19.6018 22.5951" fill="white" fill-opacity="0.88"/>
<path fill-rule="evenodd" clip-rule="evenodd" d="M13.685 22.5951C13.133 22.5951 12.6797 22.1471 12.6797 21.5951C12.6797 21.0431 13.121 20.5951 13.673 20.5951H13.685C14.237 20.5951 14.685 21.0431 14.685 21.5951C14.685 22.1471 14.237 22.5951 13.685 22.5951" fill="white" fill-opacity="0.88"/>
<path fill-rule="evenodd" clip-rule="evenodd" d="M7.75593 22.5951C7.20393 22.5951 6.74927 22.1471 6.74927 21.5951C6.74927 21.0431 7.19193 20.5951 7.74393 20.5951H7.75593C8.30793 20.5951 8.75593 21.0431 8.75593 21.5951C8.75593 22.1471 8.30793 22.5951 7.75593 22.5951" fill="white" fill-opacity="0.88"/>
<path fill-rule="evenodd" clip-rule="evenodd" d="M19.0581 6.72133C18.5061 6.72133 18.0581 6.27333 18.0581 5.72133V1.33333C18.0581 0.781332 18.5061 0.333332 19.0581 0.333332C19.6101 0.333332 20.0581 0.781332 20.0581 1.33333V5.72133C20.0581 6.27333 19.6101 6.72133 19.0581 6.72133" fill="white" fill-opacity="0.88"/>
<path fill-rule="evenodd" clip-rule="evenodd" d="M8.28711 6.72133C7.73511 6.72133 7.28711 6.27333 7.28711 5.72133V1.33333C7.28711 0.781332 7.73511 0.333332 8.28711 0.333332C8.83911 0.333332 9.28711 0.781332 9.28711 1.33333V5.72133C9.28711 6.27333 8.83911 6.72133 8.28711 6.72133" fill="white" fill-opacity="0.88"/>
<mask id="mask0_115_95" style="mask-type:luminance" maskUnits="userSpaceOnUse" x="0" y="2" width="27" height="27">
<path fill-rule="evenodd" clip-rule="evenodd" d="M0.666748 2.4388H26.6667V29H0.666748V2.4388Z" fill="white"/>
</mask>
<g mask="url(#mask0_115_95)">
<path fill-rule="evenodd" clip-rule="evenodd" d="M8.02808 4.4388C4.57075 4.4388 2.66675 6.2828 2.66675 9.6308V21.6961C2.66675 25.1175 4.57075 27.0001 8.02808 27.0001H19.3054C22.7627 27.0001 24.6667 25.1521 24.6667 21.7975V9.6308C24.6721 7.98413 24.2294 6.70413 23.3507 5.82413C22.4467 4.91746 21.0534 4.4388 19.3174 4.4388H8.02808ZM19.3054 29.0001H8.02808C3.48808 29.0001 0.666748 26.2015 0.666748 21.6961V9.6308C0.666748 5.19346 3.48808 2.4388 8.02808 2.4388H19.3174C21.5961 2.4388 23.4801 3.12146 24.7667 4.4108C26.0161 5.66546 26.6734 7.46946 26.6667 9.63346V21.7975C26.6667 26.2401 23.8454 29.0001 19.3054 29.0001V29.0001Z" fill="white" fill-opacity="0.88"/>
</g>
</svg>
