<svg width="36" height="35" viewBox="0 0 36 35" fill="none" xmlns="http://www.w3.org/2000/svg">
<path d="M18 0C8.3225 0 0.5 7.8225 0.5 17.5C0.5 27.1775 8.3225 35 18 35C27.6775 35 35.5 27.1775 35.5 17.5C35.5 7.8225 27.6775 0 18 0ZM18 31.5C10.2825 31.5 4 25.2175 4 17.5C4 9.7825 10.2825 3.5 18 3.5C25.7175 3.5 32 9.7825 32 17.5C32 25.2175 25.7175 31.5 18 31.5ZM24.2825 8.75L18 15.0325L11.7175 8.75L9.25 11.2175L15.5325 17.5L9.25 23.7825L11.7175 26.25L18 19.9675L24.2825 26.25L26.75 23.7825L20.4675 17.5L26.75 11.2175L24.2825 8.75Z" fill="#EF3349"/>
</svg>
