<svg width="22" height="17" viewBox="0 0 22 17" fill="none" xmlns="http://www.w3.org/2000/svg">
<path d="M11 2.76005C14.79 2.76005 18.17 4.97525 19.82 8.48005C18.17 11.9849 14.79 14.2001 11 14.2001C7.21 14.2001 3.83 11.9849 2.18 8.48005C3.83 4.97525 7.21 2.76005 11 2.76005ZM11 0.680054C6 0.680054 1.73 3.91445 0 8.48005C1.73 13.0457 6 16.2801 11 16.2801C16 16.2801 20.27 13.0457 22 8.48005C20.27 3.91445 16 0.680054 11 0.680054ZM11 5.88005C12.38 5.88005 13.5 7.04485 13.5 8.48005C13.5 9.91525 12.38 11.0801 11 11.0801C9.62 11.0801 8.5 9.91525 8.5 8.48005C8.5 7.04485 9.62 5.88005 11 5.88005ZM11 3.80005C8.52 3.80005 6.5 5.90085 6.5 8.48005C6.5 11.0593 8.52 13.1601 11 13.1601C13.48 13.1601 15.5 11.0593 15.5 8.48005C15.5 5.90085 13.48 3.80005 11 3.80005Z" fill="white"/>
</svg>
