<svg width="26" height="24" viewBox="0 0 26 24" fill="none" xmlns="http://www.w3.org/2000/svg">
<path d="M18.625 0.750015C16.45 0.750015 14.3625 1.76252 13 3.36252C11.6375 1.76252 9.55 0.750015 7.375 0.750015C3.525 0.750015 0.5 3.77502 0.5 7.62502C0.5 12.35 4.75 16.2 11.1875 22.05L13 23.6875L14.8125 22.0375C21.25 16.2 25.5 12.35 25.5 7.62502C25.5 3.77502 22.475 0.750015 18.625 0.750015ZM13.125 20.1875L13 20.3125L12.875 20.1875C6.925 14.8 3 11.2375 3 7.62502C3 5.12502 4.875 3.25002 7.375 3.25002C9.3 3.25002 11.175 4.48752 11.8375 6.20002H14.175C14.825 4.48752 16.7 3.25002 18.625 3.25002C21.125 3.25002 23 5.12502 23 7.62502C23 11.2375 19.075 14.8 13.125 20.1875Z" fill="white"/>
</svg>
