<svg width="28" height="28" viewBox="0 0 28 28" fill="none" xmlns="http://www.w3.org/2000/svg">
<path d="M3.33341 6H0.666748V24.6667C0.666748 26.1333 1.86675 27.3333 3.33341 27.3333H22.0001V24.6667H3.33341V6ZM24.6667 0.666668H8.66675C7.20008 0.666668 6.00008 1.86667 6.00008 3.33333V19.3333C6.00008 20.8 7.20008 22 8.66675 22H24.6667C26.1334 22 27.3334 20.8 27.3334 19.3333V3.33333C27.3334 1.86667 26.1334 0.666668 24.6667 0.666668ZM24.6667 19.3333H8.66675V3.33333H24.6667V19.3333ZM15.3334 16.6667H18.0001V12.6667H22.0001V10H18.0001V6H15.3334V10H11.3334V12.6667H15.3334V16.6667Z" fill="white" fill-opacity="0.88"/>
</svg>
