<svg width="24" height="24" viewBox="0 0 24 24" fill="none" xmlns="http://www.w3.org/2000/svg">
<path fill-rule="evenodd" clip-rule="evenodd" d="M17.8879 6.26122C17.8879 9.17222 15.1909 11.5321 11.864 11.5321C8.53718 11.5321 5.84023 9.17222 5.84023 6.26122C5.84023 3.35022 8.53718 0.990387 11.864 0.990387C15.1909 0.990387 17.8879 3.35022 17.8879 6.26122ZM1.10354 23.9904C0.695247 23.9904 0.364258 23.6594 0.364258 23.2511C0.364258 20.4909 0.364258 19.1107 0.921337 18.0564C1.41135 17.1291 2.19326 16.3751 3.15499 15.9025C4.24832 15.3654 5.67956 15.3654 8.54204 15.3654H15.1865C18.049 15.3654 19.4802 15.3654 20.5735 15.9025C21.5352 16.3751 22.3172 17.1291 22.8072 18.0564C23.3643 19.1107 23.3643 20.4908 23.3643 23.2511V23.2511C23.3643 23.6594 23.0333 23.9904 22.625 23.9904H1.10354Z" fill="white"/>
</svg>
