<svg width="217" height="194" viewBox="0 0 217 194" fill="none" xmlns="http://www.w3.org/2000/svg">
<path d="M23.3178 145.818C17.5504 136.397 20.5118 124.085 29.9322 118.318C39.3527 112.55 51.6648 115.512 57.4322 124.932C63.1996 134.353 60.2382 146.665 50.8178 152.432C41.3974 158.2 29.0852 155.238 23.3178 145.818Z" fill="url(#paint0_linear_55_299)" stroke="url(#paint1_linear_55_299)" stroke-width="10"/>
<path d="M63.971 130.759C45.1403 100.001 54.8093 59.8016 85.5673 40.9709C116.325 22.1402 156.525 31.8092 175.355 62.5672C194.186 93.3252 184.517 133.525 153.759 152.355C123.001 171.186 82.8016 161.517 63.971 130.759Z" fill="url(#paint2_linear_55_299)" stroke="url(#paint3_linear_55_299)" stroke-width="10"/>
<ellipse cx="4.90552" cy="4.4099" rx="4.90552" ry="4.4099" transform="matrix(0.0020338 -0.999998 0.999605 -0.0281183 37.2102 60.179)" fill="#EF35FF"/>
<ellipse cx="3.70961" cy="3.33482" rx="3.70961" ry="3.33482" transform="matrix(0.0020338 -0.999998 0.999605 -0.0281183 50.1226 39.5415)" fill="#9D63FD" fill-opacity="0.56"/>
<ellipse cx="2.82023" cy="2.53529" rx="2.82023" ry="2.53529" transform="matrix(0.0020338 -0.999998 0.999605 -0.0281183 66.3872 26.8153)" fill="#0094FF"/>
<path d="M7.35355 152.666C5.19078 149.133 6.3013 144.516 9.83397 142.354C13.3666 140.191 17.9837 141.301 20.1465 144.834C22.3092 148.367 21.1987 152.984 17.666 155.146C14.1334 157.309 9.51632 156.199 7.35355 152.666Z" fill="url(#paint4_linear_55_299)" stroke="url(#paint5_linear_55_299)" stroke-width="5"/>
<path d="M75.75 105.175C74.5333 105.175 73.4333 104.967 72.45 104.55C71.4833 104.133 70.7167 103.533 70.15 102.75C69.5833 101.967 69.2917 101.042 69.275 99.975H73.025C73.075 100.692 73.325 101.258 73.775 101.675C74.2417 102.092 74.875 102.3 75.675 102.3C76.4917 102.3 77.1333 102.108 77.6 101.725C78.0667 101.325 78.3 100.808 78.3 100.175C78.3 99.6583 78.1417 99.2333 77.825 98.9C77.5083 98.5667 77.1083 98.3083 76.625 98.125C76.1583 97.925 75.5083 97.7083 74.675 97.475C73.5417 97.1417 72.6167 96.8167 71.9 96.5C71.2 96.1667 70.5917 95.675 70.075 95.025C69.575 94.3583 69.325 93.475 69.325 92.375C69.325 91.3417 69.5833 90.4417 70.1 89.675C70.6167 88.9083 71.3417 88.325 72.275 87.925C73.2083 87.5083 74.275 87.3 75.475 87.3C77.275 87.3 78.7333 87.7417 79.85 88.625C80.9833 89.4917 81.6083 90.7083 81.725 92.275H77.875C77.8417 91.675 77.5833 91.1833 77.1 90.8C76.6333 90.4 76.0083 90.2 75.225 90.2C74.5417 90.2 73.9917 90.375 73.575 90.725C73.175 91.075 72.975 91.5833 72.975 92.25C72.975 92.7167 73.125 93.1083 73.425 93.425C73.7417 93.725 74.125 93.975 74.575 94.175C75.0417 94.3583 75.6917 94.575 76.525 94.825C77.6583 95.1583 78.5833 95.4917 79.3 95.825C80.0167 96.1583 80.6333 96.6583 81.15 97.325C81.6667 97.9917 81.925 98.8667 81.925 99.95C81.925 100.883 81.6833 101.75 81.2 102.55C80.7167 103.35 80.0083 103.992 79.075 104.475C78.1417 104.942 77.0333 105.175 75.75 105.175ZM86.7344 89.5C86.1177 89.5 85.601 89.3083 85.1844 88.925C84.7844 88.525 84.5844 88.0333 84.5844 87.45C84.5844 86.8667 84.7844 86.3833 85.1844 86C85.601 85.6 86.1177 85.4 86.7344 85.4C87.351 85.4 87.8594 85.6 88.2594 86C88.676 86.3833 88.8844 86.8667 88.8844 87.45C88.8844 88.0333 88.676 88.525 88.2594 88.925C87.8594 89.3083 87.351 89.5 86.7344 89.5ZM88.4594 91.15V105H84.9594V91.15H88.4594ZM97.3424 90.925C98.3757 90.925 99.284 91.1333 100.067 91.55C100.851 91.95 101.467 92.475 101.917 93.125V91.15H105.442V105.1C105.442 106.383 105.184 107.525 104.667 108.525C104.151 109.542 103.376 110.342 102.342 110.925C101.309 111.525 100.059 111.825 98.5924 111.825C96.6257 111.825 95.009 111.367 93.7424 110.45C92.4924 109.533 91.784 108.283 91.6174 106.7H95.0924C95.2757 107.333 95.6674 107.833 96.2674 108.2C96.884 108.583 97.6257 108.775 98.4924 108.775C99.509 108.775 100.334 108.467 100.967 107.85C101.601 107.25 101.917 106.333 101.917 105.1V102.95C101.467 103.6 100.842 104.142 100.042 104.575C99.259 105.008 98.359 105.225 97.3424 105.225C96.1757 105.225 95.109 104.925 94.1424 104.325C93.1757 103.725 92.409 102.883 91.8424 101.8C91.2924 100.7 91.0174 99.4417 91.0174 98.025C91.0174 96.625 91.2924 95.3833 91.8424 94.3C92.409 93.2167 93.1674 92.3833 94.1174 91.8C95.084 91.2167 96.159 90.925 97.3424 90.925ZM101.917 98.075C101.917 97.225 101.751 96.5 101.417 95.9C101.084 95.2833 100.634 94.8167 100.067 94.5C99.5007 94.1667 98.8924 94 98.2424 94C97.5924 94 96.9924 94.1583 96.4424 94.475C95.8924 94.7917 95.4424 95.2583 95.0924 95.875C94.759 96.475 94.5924 97.1917 94.5924 98.025C94.5924 98.8583 94.759 99.5917 95.0924 100.225C95.4424 100.842 95.8924 101.317 96.4424 101.65C97.009 101.983 97.609 102.15 98.2424 102.15C98.8924 102.15 99.5007 101.992 100.067 101.675C100.634 101.342 101.084 100.875 101.417 100.275C101.751 99.6583 101.917 98.925 101.917 98.075ZM116.536 90.95C118.186 90.95 119.519 91.475 120.536 92.525C121.552 93.5583 122.061 95.0083 122.061 96.875V105H118.561V97.35C118.561 96.25 118.286 95.4083 117.736 94.825C117.186 94.225 116.436 93.925 115.486 93.925C114.519 93.925 113.752 94.225 113.186 94.825C112.636 95.4083 112.361 96.25 112.361 97.35V105H108.861V91.15H112.361V92.875C112.827 92.275 113.419 91.8083 114.136 91.475C114.869 91.125 115.669 90.95 116.536 90.95ZM136.039 94.6V97.55H125.439V94.6H136.039ZM143.414 87.55V98.35C143.414 99.5333 143.723 100.442 144.339 101.075C144.956 101.692 145.823 102 146.939 102C148.073 102 148.948 101.692 149.564 101.075C150.181 100.442 150.489 99.5333 150.489 98.35V87.55H154.014V98.325C154.014 99.8083 153.689 101.067 153.039 102.1C152.406 103.117 151.548 103.883 150.464 104.4C149.398 104.917 148.206 105.175 146.889 105.175C145.589 105.175 144.406 104.917 143.339 104.4C142.289 103.883 141.456 103.117 140.839 102.1C140.223 101.067 139.914 99.8083 139.914 98.325V87.55H143.414ZM160.896 93.15C161.346 92.5167 161.963 91.9917 162.746 91.575C163.546 91.1417 164.454 90.925 165.471 90.925C166.654 90.925 167.721 91.2167 168.671 91.8C169.638 92.3833 170.396 93.2167 170.946 94.3C171.513 95.3667 171.796 96.6083 171.796 98.025C171.796 99.4417 171.513 100.7 170.946 101.8C170.396 102.883 169.638 103.725 168.671 104.325C167.721 104.925 166.654 105.225 165.471 105.225C164.454 105.225 163.554 105.017 162.771 104.6C162.004 104.183 161.379 103.658 160.896 103.025V111.6H157.396V91.15H160.896V93.15ZM168.221 98.025C168.221 97.1917 168.046 96.475 167.696 95.875C167.363 95.2583 166.913 94.7917 166.346 94.475C165.796 94.1583 165.196 94 164.546 94C163.913 94 163.313 94.1667 162.746 94.5C162.196 94.8167 161.746 95.2833 161.396 95.9C161.063 96.5167 160.896 97.2417 160.896 98.075C160.896 98.9083 161.063 99.6333 161.396 100.25C161.746 100.867 162.196 101.342 162.746 101.675C163.313 101.992 163.913 102.15 164.546 102.15C165.196 102.15 165.796 101.983 166.346 101.65C166.913 101.317 167.363 100.842 167.696 100.225C168.046 99.6083 168.221 98.875 168.221 98.025Z" fill="white"/>
<defs>
<linearGradient id="paint0_linear_55_299" x1="53.4285" y1="156.697" x2="27.3215" y2="114.054" gradientUnits="userSpaceOnUse">
<stop stop-color="#270D59"/>
<stop offset="1" stop-color="#07011A" stop-opacity="0"/>
</linearGradient>
<linearGradient id="paint1_linear_55_299" x1="53.4285" y1="156.697" x2="27.3215" y2="114.054" gradientUnits="userSpaceOnUse">
<stop stop-color="#BD355A"/>
<stop offset="1" stop-color="#3228CC"/>
</linearGradient>
<linearGradient id="paint2_linear_55_299" x1="156.37" y1="156.62" x2="82.9566" y2="36.7066" gradientUnits="userSpaceOnUse">
<stop stop-color="#270D59"/>
<stop offset="1" stop-color="#07011A" stop-opacity="0"/>
</linearGradient>
<linearGradient id="paint3_linear_55_299" x1="156.37" y1="156.62" x2="82.9566" y2="36.7066" gradientUnits="userSpaceOnUse">
<stop stop-color="#BD355A"/>
<stop offset="1" stop-color="#3228CC"/>
</linearGradient>
<linearGradient id="paint4_linear_55_299" x1="18.9714" y1="157.279" x2="8.52862" y2="140.221" gradientUnits="userSpaceOnUse">
<stop stop-color="#270D59"/>
<stop offset="1" stop-color="#07011A" stop-opacity="0"/>
</linearGradient>
<linearGradient id="paint5_linear_55_299" x1="18.9714" y1="157.279" x2="8.52862" y2="140.221" gradientUnits="userSpaceOnUse">
<stop stop-color="#BD355A"/>
<stop offset="1" stop-color="#3228CC"/>
</linearGradient>
</defs>
</svg>
