<svg width="217" height="194" viewBox="0 0 217 194" fill="none" xmlns="http://www.w3.org/2000/svg">
<path d="M23.3178 145.818C17.5504 136.397 20.5118 124.085 29.9322 118.318C39.3527 112.55 51.6648 115.512 57.4322 124.932C63.1996 134.353 60.2382 146.665 50.8178 152.432C41.3974 158.2 29.0852 155.238 23.3178 145.818Z" fill="url(#paint0_linear_56_303)" stroke="url(#paint1_linear_56_303)" stroke-width="10"/>
<path d="M63.971 130.759C45.1403 100.001 54.8093 59.8016 85.5673 40.9709C116.325 22.1402 156.525 31.8092 175.355 62.5672C194.186 93.3252 184.517 133.525 153.759 152.355C123.001 171.186 82.8016 161.517 63.971 130.759Z" fill="url(#paint2_linear_56_303)" stroke="url(#paint3_linear_56_303)" stroke-width="10"/>
<ellipse cx="4.90552" cy="4.4099" rx="4.90552" ry="4.4099" transform="matrix(0.0020338 -0.999998 0.999605 -0.0281183 37.2101 60.179)" fill="#EF35FF"/>
<ellipse cx="3.70961" cy="3.33482" rx="3.70961" ry="3.33482" transform="matrix(0.0020338 -0.999998 0.999605 -0.0281183 50.1226 39.5415)" fill="#9D63FD" fill-opacity="0.56"/>
<ellipse cx="2.82023" cy="2.53529" rx="2.82023" ry="2.53529" transform="matrix(0.0020338 -0.999998 0.999605 -0.0281183 66.3872 26.8153)" fill="#0094FF"/>
<path d="M7.35355 152.666C5.19078 149.133 6.3013 144.516 9.83397 142.354C13.3666 140.191 17.9837 141.301 20.1465 144.834C22.3092 148.367 21.1987 152.984 17.666 155.146C14.1334 157.309 9.51632 156.199 7.35355 152.666Z" fill="url(#paint4_linear_56_303)" stroke="url(#paint5_linear_56_303)" stroke-width="5"/>
<path d="M91.8017 102.225H97.5517V105H88.3017V87.55H91.8017V102.225ZM105.926 105.225C104.593 105.225 103.393 104.933 102.326 104.35C101.26 103.75 100.418 102.908 99.8013 101.825C99.2013 100.742 98.9013 99.4917 98.9013 98.075C98.9013 96.6583 99.2096 95.4083 99.8263 94.325C100.46 93.2417 101.318 92.4083 102.401 91.825C103.485 91.225 104.693 90.925 106.026 90.925C107.36 90.925 108.568 91.225 109.651 91.825C110.735 92.4083 111.585 93.2417 112.201 94.325C112.835 95.4083 113.151 96.6583 113.151 98.075C113.151 99.4917 112.826 100.742 112.176 101.825C111.543 102.908 110.676 103.75 109.576 104.35C108.493 104.933 107.276 105.225 105.926 105.225ZM105.926 102.175C106.56 102.175 107.151 102.025 107.701 101.725C108.268 101.408 108.718 100.942 109.051 100.325C109.385 99.7083 109.551 98.9583 109.551 98.075C109.551 96.7583 109.201 95.75 108.501 95.05C107.818 94.3333 106.976 93.975 105.976 93.975C104.976 93.975 104.135 94.3333 103.451 95.05C102.785 95.75 102.451 96.7583 102.451 98.075C102.451 99.3917 102.776 100.408 103.426 101.125C104.093 101.825 104.926 102.175 105.926 102.175ZM121.144 90.925C122.177 90.925 123.085 91.1333 123.869 91.55C124.652 91.95 125.269 92.475 125.719 93.125V91.15H129.244V105.1C129.244 106.383 128.985 107.525 128.469 108.525C127.952 109.542 127.177 110.342 126.144 110.925C125.11 111.525 123.86 111.825 122.394 111.825C120.427 111.825 118.81 111.367 117.544 110.45C116.294 109.533 115.585 108.283 115.419 106.7H118.894C119.077 107.333 119.469 107.833 120.069 108.2C120.685 108.583 121.427 108.775 122.294 108.775C123.31 108.775 124.135 108.467 124.769 107.85C125.402 107.25 125.719 106.333 125.719 105.1V102.95C125.269 103.6 124.644 104.142 123.844 104.575C123.06 105.008 122.16 105.225 121.144 105.225C119.977 105.225 118.91 104.925 117.944 104.325C116.977 103.725 116.21 102.883 115.644 101.8C115.094 100.7 114.819 99.4417 114.819 98.025C114.819 96.625 115.094 95.3833 115.644 94.3C116.21 93.2167 116.969 92.3833 117.919 91.8C118.885 91.2167 119.96 90.925 121.144 90.925ZM125.719 98.075C125.719 97.225 125.552 96.5 125.219 95.9C124.885 95.2833 124.435 94.8167 123.869 94.5C123.302 94.1667 122.694 94 122.044 94C121.394 94 120.794 94.1583 120.244 94.475C119.694 94.7917 119.244 95.2583 118.894 95.875C118.56 96.475 118.394 97.1917 118.394 98.025C118.394 98.8583 118.56 99.5917 118.894 100.225C119.244 100.842 119.694 101.317 120.244 101.65C120.81 101.983 121.41 102.15 122.044 102.15C122.694 102.15 123.302 101.992 123.869 101.675C124.435 101.342 124.885 100.875 125.219 100.275C125.552 99.6583 125.719 98.925 125.719 98.075ZM134.437 89.5C133.82 89.5 133.304 89.3083 132.887 88.925C132.487 88.525 132.287 88.0333 132.287 87.45C132.287 86.8667 132.487 86.3833 132.887 86C133.304 85.6 133.82 85.4 134.437 85.4C135.054 85.4 135.562 85.6 135.962 86C136.379 86.3833 136.587 86.8667 136.587 87.45C136.587 88.0333 136.379 88.525 135.962 88.925C135.562 89.3083 135.054 89.5 134.437 89.5ZM136.162 91.15V105H132.662V91.15H136.162ZM147.295 90.95C148.945 90.95 150.278 91.475 151.295 92.525C152.312 93.5583 152.82 95.0083 152.82 96.875V105H149.32V97.35C149.32 96.25 149.045 95.4083 148.495 94.825C147.945 94.225 147.195 93.925 146.245 93.925C145.278 93.925 144.512 94.225 143.945 94.825C143.395 95.4083 143.12 96.25 143.12 97.35V105H139.62V91.15H143.12V92.875C143.587 92.275 144.178 91.8083 144.895 91.475C145.628 91.125 146.428 90.95 147.295 90.95Z" fill="white"/>
<defs>
<linearGradient id="paint0_linear_56_303" x1="53.4285" y1="156.697" x2="27.3215" y2="114.054" gradientUnits="userSpaceOnUse">
<stop stop-color="#270D59"/>
<stop offset="1" stop-color="#07011A" stop-opacity="0"/>
</linearGradient>
<linearGradient id="paint1_linear_56_303" x1="53.4285" y1="156.697" x2="27.3215" y2="114.054" gradientUnits="userSpaceOnUse">
<stop stop-color="#BD355A"/>
<stop offset="1" stop-color="#3228CC"/>
</linearGradient>
<linearGradient id="paint2_linear_56_303" x1="156.37" y1="156.62" x2="82.9566" y2="36.7066" gradientUnits="userSpaceOnUse">
<stop stop-color="#270D59"/>
<stop offset="1" stop-color="#07011A" stop-opacity="0"/>
</linearGradient>
<linearGradient id="paint3_linear_56_303" x1="156.37" y1="156.62" x2="82.9566" y2="36.7066" gradientUnits="userSpaceOnUse">
<stop stop-color="#BD355A"/>
<stop offset="1" stop-color="#3228CC"/>
</linearGradient>
<linearGradient id="paint4_linear_56_303" x1="18.9714" y1="157.279" x2="8.52862" y2="140.221" gradientUnits="userSpaceOnUse">
<stop stop-color="#270D59"/>
<stop offset="1" stop-color="#07011A" stop-opacity="0"/>
</linearGradient>
<linearGradient id="paint5_linear_56_303" x1="18.9714" y1="157.279" x2="8.52862" y2="140.221" gradientUnits="userSpaceOnUse">
<stop stop-color="#BD355A"/>
<stop offset="1" stop-color="#3228CC"/>
</linearGradient>
</defs>
</svg>
