<svg width="23" height="24" viewBox="0 0 23 24" fill="none" xmlns="http://www.w3.org/2000/svg">
<path d="M18.1743 23.8539C20.0948 23.8539 21.5625 21.9564 21.5625 19.7467V7.42528H1.4375V19.7467C1.4375 21.9564 2.90519 23.8539 4.82569 23.8539H18.1743ZM7.90625 10.711H15.0938C15.2844 10.711 15.4672 10.7975 15.602 10.9516C15.7368 11.1056 15.8125 11.3146 15.8125 11.5324C15.8125 11.7503 15.7368 11.9592 15.602 12.1133C15.4672 12.2673 15.2844 12.3539 15.0938 12.3539H7.90625C7.71563 12.3539 7.53281 12.2673 7.39802 12.1133C7.26323 11.9592 7.1875 11.7503 7.1875 11.5324C7.1875 11.3146 7.26323 11.1056 7.39802 10.9516C7.53281 10.7975 7.71563 10.711 7.90625 10.711ZM1.15 0.853851C0.845001 0.853851 0.552494 0.99232 0.336827 1.2388C0.12116 1.48527 0 1.81957 0 2.16814L0 4.13957C0 4.48814 0.12116 4.82243 0.336827 5.06891C0.552494 5.31538 0.845001 5.45385 1.15 5.45385H21.85C22.155 5.45385 22.4475 5.31538 22.6632 5.06891C22.8788 4.82243 23 4.48814 23 4.13957V2.16814C23 1.81957 22.8788 1.48527 22.6632 1.2388C22.4475 0.99232 22.155 0.853851 21.85 0.853851H1.15Z" fill="white"/>
</svg>
