<svg width="25" height="25" viewBox="0 0 25 25" fill="none" xmlns="http://www.w3.org/2000/svg">
<g filter="url(#filter0_i_34_5889)">
<mask id="mask0_34_5889" style="mask-type:luminance" maskUnits="userSpaceOnUse" x="2" y="2" width="21" height="21">
<path fill-rule="evenodd" clip-rule="evenodd" d="M2.08374 2.08354H22.875V22.8646H2.08374V2.08354Z" fill="white"/>
</mask>
<g mask="url(#mask0_34_5889)">
<path fill-rule="evenodd" clip-rule="evenodd" d="M7.96911 3.64583C5.34306 3.64583 3.64619 5.44479 3.64619 8.22813V16.7198C3.64619 19.5042 5.34306 21.3021 7.96911 21.3021H16.9795C19.6118 21.3021 21.3129 19.5042 21.3129 16.7198V8.22813C21.3129 5.44479 19.6118 3.64583 16.9795 3.64583H7.96911ZM16.9796 22.8646H7.96916C4.44832 22.8646 2.08374 20.3948 2.08374 16.7198V8.22812C2.08374 4.55312 4.44832 2.08333 7.96916 2.08333H16.9796C20.5056 2.08333 22.8754 4.55312 22.8754 8.22812V16.7198C22.8754 20.3948 20.5056 22.8646 16.9796 22.8646Z" fill="url(#paint0_linear_34_5889)"/>
</g>
<path fill-rule="evenodd" clip-rule="evenodd" d="M5.50147 17.8962C5.30772 17.8962 5.11501 17.8254 4.96397 17.6817C4.65043 17.3858 4.63793 16.89 4.9348 16.5785L6.52647 14.8983C7.36918 14.0035 8.79105 13.9598 9.69001 14.8035L10.6879 15.816C10.9661 16.0973 11.4181 16.1025 11.6973 15.8275C11.8025 15.7035 14.0713 12.9483 14.0713 12.9483C14.5025 12.4254 15.1108 12.1025 15.7869 12.0358C16.464 11.9765 17.1213 12.1733 17.6452 12.6035C17.69 12.64 17.7306 12.6754 20.0181 15.0244C20.3192 15.3327 20.314 15.8275 20.0046 16.1285C19.6963 16.4317 19.2004 16.4223 18.8994 16.114C18.8994 16.114 16.765 13.9233 16.6129 13.7754C16.4515 13.6431 16.1921 13.566 15.9369 13.591C15.6775 13.6171 15.4442 13.741 15.2786 13.9421C12.8577 16.8785 12.8286 16.9067 12.789 16.9452C11.8952 17.8223 10.4525 17.8077 9.57439 16.9119C9.57439 16.9119 8.60564 15.9285 8.58897 15.9087C8.34835 15.6858 7.91918 15.7004 7.66189 15.9723L6.06814 17.6525C5.91397 17.815 5.70772 17.8962 5.50147 17.8962Z" fill="url(#paint1_linear_34_5889)"/>
<path fill-rule="evenodd" clip-rule="evenodd" d="M8.91413 8.46761C8.33809 8.46761 7.86934 8.93636 7.86934 9.51344C7.86934 10.0905 8.33809 10.5603 8.91517 10.5603C9.49226 10.5603 9.96205 10.0905 9.96205 9.51344C9.96205 8.9374 9.49226 8.46865 8.91413 8.46761ZM8.91522 12.1228C7.47668 12.1228 6.30688 10.952 6.30688 9.51344C6.30688 8.0749 7.47668 6.90511 8.91522 6.90511C10.3548 6.90615 11.5246 8.07698 11.5246 9.51344C11.5246 10.952 10.3538 12.1228 8.91522 12.1228Z" fill="url(#paint2_linear_34_5889)"/>
</g>
<defs>
<filter id="filter0_i_34_5889" x="0" y="0" width="25" height="29" filterUnits="userSpaceOnUse" color-interpolation-filters="sRGB">
<feFlood flood-opacity="0" result="BackgroundImageFix"/>
<feBlend mode="normal" in="SourceGraphic" in2="BackgroundImageFix" result="shape"/>
<feColorMatrix in="SourceAlpha" type="matrix" values="0 0 0 0 0 0 0 0 0 0 0 0 0 0 0 0 0 0 127 0" result="hardAlpha"/>
<feOffset dy="4"/>
<feGaussianBlur stdDeviation="2"/>
<feComposite in2="hardAlpha" operator="arithmetic" k2="-1" k3="1"/>
<feColorMatrix type="matrix" values="0 0 0 0 0 0 0 0 0 0 0 0 0 0 0 0 0 0 0.25 0"/>
<feBlend mode="normal" in2="shape" result="effect1_innerShadow_34_5889"/>
</filter>
<linearGradient id="paint0_linear_34_5889" x1="12.4796" y1="2.08333" x2="12.4796" y2="22.8646" gradientUnits="userSpaceOnUse">
<stop stop-color="#D7386D"/>
<stop offset="1" stop-color="#8169DE"/>
</linearGradient>
<linearGradient id="paint1_linear_34_5889" x1="12.4803" y1="12.0255" x2="12.4803" y2="17.8962" gradientUnits="userSpaceOnUse">
<stop stop-color="#D7386D"/>
<stop offset="1" stop-color="#8169DE"/>
</linearGradient>
<linearGradient id="paint2_linear_34_5889" x1="8.91574" y1="6.90511" x2="8.91574" y2="12.1228" gradientUnits="userSpaceOnUse">
<stop stop-color="#D7386D"/>
<stop offset="1" stop-color="#8169DE"/>
</linearGradient>
</defs>
</svg>
