<svg width="24" height="24" viewBox="0 0 24 24" fill="none" xmlns="http://www.w3.org/2000/svg">
<path d="M5.83987 5.47889V1.59764C5.83987 1.25452 5.97449 0.925449 6.21412 0.682824C6.45375 0.440199 6.77876 0.303894 7.11765 0.303894H22.451C22.7899 0.303894 23.1149 0.440199 23.3545 0.682824C23.5941 0.925449 23.7288 1.25452 23.7288 1.59764V16.8351C23.7288 17.1782 23.5941 17.5073 23.3545 17.7499C23.1149 17.9926 22.7899 18.1289 22.451 18.1289H18.6176V22.0101C18.6176 22.7243 18.0426 23.3039 17.3309 23.3039H2.01548C1.84698 23.3049 1.67993 23.2722 1.52395 23.2077C1.36796 23.1431 1.22611 23.048 1.10655 22.9278C0.986978 22.8076 0.892051 22.6646 0.827218 22.5071C0.762385 22.3496 0.728925 22.1807 0.72876 22.0101L0.732593 6.77264C0.732593 6.05849 1.30759 5.47889 2.01932 5.47889H5.83987ZM8.39543 5.47889H18.6176V15.5414H21.1732V2.89139H8.39543V5.47889Z" fill="white"/>
</svg>
