<svg width="26" height="26" viewBox="0 0 26 26" fill="none" xmlns="http://www.w3.org/2000/svg">
<path d="M3.83883 3.83884C-1.04904 8.72671 -1.04904 16.6286 3.83883 21.5165C8.72671 26.4044 16.6286 26.4044 21.5165 21.5165C26.4044 16.6286 26.4044 8.72671 21.5165 3.83884C16.6286 -1.04904 8.72671 -1.04904 3.83883 3.83884ZM19.7487 19.7487C15.8508 23.6467 9.50453 23.6467 5.6066 19.7487C1.70868 15.8508 1.70868 9.50453 5.6066 5.60661C9.50453 1.70868 15.8508 1.70868 19.7487 5.60661C23.6467 9.50453 23.6467 15.8508 19.7487 19.7487ZM11.4314 5.08511L11.4314 11.4314H5.08511V13.9239H11.4314L11.4314 20.2702L13.9239 20.2702V13.9239L20.2702 13.9239V11.4314L13.9239 11.4314V5.08511L11.4314 5.08511Z" fill="#11C122"/>
</svg>
