<svg width="28" height="28" viewBox="0 0 28 28" fill="none" xmlns="http://www.w3.org/2000/svg">
<path d="M14.0001 0.666668C6.64008 0.666668 0.666748 6.64 0.666748 14C0.666748 21.36 6.64008 27.3333 14.0001 27.3333C21.3601 27.3333 27.3334 21.36 27.3334 14C27.3334 6.64 21.3601 0.666668 14.0001 0.666668ZM7.42675 22.3733C8.00008 21.1733 11.4934 20 14.0001 20C16.5067 20 20.0134 21.1733 20.5734 22.3733C18.7601 23.8133 16.4801 24.6667 14.0001 24.6667C11.5201 24.6667 9.24008 23.8133 7.42675 22.3733ZM22.4801 20.44C20.5734 18.12 15.9467 17.3333 14.0001 17.3333C12.0534 17.3333 7.42675 18.12 5.52008 20.44C4.16008 18.6533 3.33341 16.4267 3.33341 14C3.33341 8.12 8.12008 3.33333 14.0001 3.33333C19.8801 3.33333 24.6667 8.12 24.6667 14C24.6667 16.4267 23.8401 18.6533 22.4801 20.44V20.44ZM14.0001 6C11.4134 6 9.33341 8.08 9.33341 10.6667C9.33341 13.2533 11.4134 15.3333 14.0001 15.3333C16.5867 15.3333 18.6667 13.2533 18.6667 10.6667C18.6667 8.08 16.5867 6 14.0001 6ZM14.0001 12.6667C12.8934 12.6667 12.0001 11.7733 12.0001 10.6667C12.0001 9.56 12.8934 8.66667 14.0001 8.66667C15.1067 8.66667 16.0001 9.56 16.0001 10.6667C16.0001 11.7733 15.1067 12.6667 14.0001 12.6667Z" fill="white" fill-opacity="0.88"/>
</svg>
