<svg width="24" height="24" viewBox="0 0 24 24" fill="none" xmlns="http://www.w3.org/2000/svg">
<path d="M2.66426 7.61732H21.0643V22.5673C21.0643 22.8723 20.9431 23.1648 20.7274 23.3805C20.5118 23.5962 20.2193 23.7173 19.9143 23.7173H3.81426C3.50926 23.7173 3.21675 23.5962 3.00109 23.3805C2.78542 23.1648 2.66426 22.8723 2.66426 22.5673V7.61732ZM6.11426 4.16732V1.86732C6.11426 1.56232 6.23542 1.26981 6.45109 1.05414C6.66675 0.838476 6.95926 0.717316 7.26426 0.717316H16.4643C16.7693 0.717316 17.0618 0.838476 17.2774 1.05414C17.4931 1.26981 17.6143 1.56232 17.6143 1.86732V4.16732H23.3643V6.46732H0.364258V4.16732H6.11426ZM8.41426 3.01732V4.16732H15.3143V3.01732H8.41426ZM8.41426 12.2173V19.1173H10.7143V12.2173H8.41426ZM13.0143 12.2173V19.1173H15.3143V12.2173H13.0143Z" fill="white"/>
</svg>
