<svg width="96" height="88" viewBox="0 0 96 88" fill="none" xmlns="http://www.w3.org/2000/svg">
<path d="M87.5 21H74.2917L66.6667 12.6666H41.6667V21H63L70.625 29.3333H87.5V79.3333H20.8333V41.8333H12.5V79.3333C12.5 83.9166 16.25 87.6666 20.8333 87.6666H87.5C92.0833 87.6666 95.8333 83.9166 95.8333 79.3333V29.3333C95.8333 24.75 92.0833 21 87.5 21ZM33.3333 54.3333C33.3333 65.8333 42.6667 75.1666 54.1667 75.1666C65.6667 75.1666 75 65.8333 75 54.3333C75 42.8333 65.6667 33.5 54.1667 33.5C42.6667 33.5 33.3333 42.8333 33.3333 54.3333ZM54.1667 41.8333C61.0417 41.8333 66.6667 47.4583 66.6667 54.3333C66.6667 61.2083 61.0417 66.8333 54.1667 66.8333C47.2917 66.8333 41.6667 61.2083 41.6667 54.3333C41.6667 47.4583 47.2917 41.8333 54.1667 41.8333ZM20.8333 21H33.3333V12.6666H20.8333V0.166626H12.5V12.6666H0V21H12.5V33.5H20.8333V21Z" fill="#4C407B"/>
</svg>
